<?xml version="1.0" encoding="UTF-8"?>
<!DOCTYPE svg PUBLIC "-//W3C//DTD SVG 1.1//EN" "http://www.w3.org/Graphics/SVG/1.1/DTD/svg11.dtd">
<svg xmlns="http://www.w3.org/2000/svg" version="1.1" width="600px" height="600px" style="shape-rendering:geometricPrecision; text-rendering:geometricPrecision; image-rendering:optimizeQuality; fill-rule:evenodd; clip-rule:evenodd" xmlns:xlink="http://www.w3.org/1999/xlink">
<g><path style="opacity:0.968" fill="#000001" d="M 469.5,319.5 C 463.861,310.527 456.527,303.194 447.5,297.5C 447.5,296.833 447.167,296.5 446.5,296.5C 446.5,295.833 446.167,295.5 445.5,295.5C 425.368,274.868 405.035,254.368 384.5,234C 377.839,238.482 371.839,243.982 366.5,250.5C 362.709,247.882 359.043,245.049 355.5,242C 353.561,240.568 352.228,238.735 351.5,236.5C 357.742,231.764 363.576,226.431 369,220.5C 369.667,219.833 369.667,219.167 369,218.5C 336,185.5 303,152.5 270,119.5C 268.399,116.45 268.399,113.116 270,109.5C 302.167,77.3333 334.333,45.1667 366.5,13C 369.833,11 373.167,11 376.5,13C 447.667,84.1667 518.833,155.333 590,226.5C 592,229.833 592,233.167 590,236.5C 557.833,268.667 525.667,300.833 493.5,333C 490.894,334.235 488.394,334.735 486,334.5C 480.33,329.663 474.83,324.663 469.5,319.5 Z"/></g>
<g><path style="opacity:1" fill="#0d3556" d="M 370.5,33.5 C 382.914,44.4104 394.914,55.9104 406.5,68C 402.833,71.6667 399.167,75.3333 395.5,79C 394.833,79.6667 394.167,79.6667 393.5,79C 382.667,68.1667 371.833,57.3333 361,46.5C 360.333,45.5 360.333,44.5 361,43.5C 364.371,40.2975 367.538,36.9641 370.5,33.5 Z"/></g>
<g><path style="opacity:1" fill="#124876" d="M 349.5,57.5 C 360.131,68.6318 370.965,79.6318 382,90.5C 382.464,91.0944 382.631,91.7611 382.5,92.5C 379.036,95.4625 375.703,98.6291 372.5,102C 371.833,102.667 371.167,102.667 370.5,102C 359.167,90.6667 347.833,79.3333 336.5,68C 340.167,64.3333 343.833,60.6667 347.5,57C 348.437,56.3083 349.103,56.475 349.5,57.5 Z"/></g>
<g><path style="opacity:1" fill="#09192a" d="M 349.5,57.5 C 361.08,67.5765 372.247,78.2432 383,89.5C 383.74,90.7494 383.573,91.7494 382.5,92.5C 382.631,91.7611 382.464,91.0944 382,90.5C 370.965,79.6318 360.131,68.6318 349.5,57.5 Z"/></g>
<g><path style="opacity:1" fill="#0d3556" d="M 323.5,80.5 C 324.552,80.3505 325.552,80.5172 326.5,81C 337.333,91.8333 348.167,102.667 359,113.5C 359.667,114.167 359.667,114.833 359,115.5C 355.833,118.667 352.667,121.833 349.5,125C 348.5,125.667 347.5,125.667 346.5,125C 335.667,114.167 324.833,103.333 314,92.5C 313.333,91.8333 313.333,91.1667 314,90.5C 317.371,87.2975 320.538,83.9641 323.5,80.5 Z"/></g>
<g><path style="opacity:1" fill="#124774" d="M 417.5,79.5 C 429.084,90.5829 440.584,101.916 452,113.5C 452.667,114.5 452.667,115.5 452,116.5C 448.833,119.667 445.667,122.833 442.5,126C 441.833,126.667 441.167,126.667 440.5,126C 429.333,114.833 418.167,103.667 407,92.5C 406.333,91.8333 406.333,91.1667 407,90.5C 410.704,86.9643 414.204,83.2976 417.5,79.5 Z"/></g>
<g><path style="opacity:1" fill="#124775" d="M 300.5,103.5 C 312.914,114.41 324.914,125.91 336.5,138C 332.833,141.667 329.167,145.333 325.5,149C 324.833,149.667 324.167,149.667 323.5,149C 312.667,138.167 301.833,127.333 291,116.5C 290.333,115.5 290.333,114.5 291,113.5C 294.371,110.297 297.538,106.964 300.5,103.5 Z"/></g>
<g><path style="opacity:1" fill="#0d3557" d="M 388.5,132.5 C 386.18,128.18 382.847,124.847 378.5,122.5C 372.821,127.181 367.155,131.848 361.5,136.5C 372.173,124.993 383.34,113.993 395,103.5C 406.5,115 418,126.5 429.5,138C 426.365,142.302 422.699,146.136 418.5,149.5C 412.014,143.515 405.681,137.348 399.5,131C 395.598,130.112 391.931,130.612 388.5,132.5 Z"/></g>
<g><path style="opacity:1" fill="#124775" d="M 388.5,132.5 C 387.532,135.445 387.366,138.445 388,141.5C 393.983,148.317 400.149,154.984 406.5,161.5C 402.849,165.652 399.016,169.652 395,173.5C 383.667,162.167 372.333,150.833 361,139.5C 360.26,138.251 360.427,137.251 361.5,136.5C 367.155,131.848 372.821,127.181 378.5,122.5C 382.847,124.847 386.18,128.18 388.5,132.5 Z"/></g>
<g><path style="opacity:1" fill="#47320f" d="M 466.5,127.5 C 470.833,129.833 474.167,133.167 476.5,137.5C 472.833,134.5 469.5,131.167 466.5,127.5 Z"/></g>
<g><path style="opacity:1" fill="#f6b033" d="M 466.5,127.5 C 469.5,131.167 472.833,134.5 476.5,137.5C 476.5,137.833 476.5,138.167 476.5,138.5C 470.833,143.833 465.167,149.167 459.5,154.5C 455.598,152.107 452.098,149.107 449,145.5C 448.805,144.181 448.972,142.847 449.5,141.5C 455.167,136.833 460.833,132.167 466.5,127.5 Z"/></g>
<g><path style="opacity:1" fill="#ad7b22" d="M 466.5,127.5 C 460.833,132.167 455.167,136.833 449.5,141.5C 453.963,136.535 458.63,131.702 463.5,127C 464.749,126.26 465.749,126.427 466.5,127.5 Z"/></g>
<g><path style="opacity:1" fill="#f7c164" d="M 449.5,141.5 C 448.972,142.847 448.805,144.181 449,145.5C 452.098,149.107 455.598,152.107 459.5,154.5C 459.5,154.833 459.5,155.167 459.5,155.5C 438.167,176.167 417.167,197.167 396.5,218.5C 395.749,219.573 394.749,219.74 393.5,219C 390.333,215.833 387.167,212.667 384,209.5C 383.251,208.365 383.417,207.365 384.5,206.5C 406.548,185.119 428.215,163.452 449.5,141.5 Z"/></g>
<g><path style="opacity:1" fill="#281e0d" d="M 476.5,138.5 C 471.833,145.167 466.167,150.833 459.5,155.5C 459.5,155.167 459.5,154.833 459.5,154.5C 465.167,149.167 470.833,143.833 476.5,138.5 Z"/></g>
<g><path style="opacity:1" fill="#0d3455" d="M 346.5,150.5 C 347.552,150.351 348.552,150.517 349.5,151C 360.333,161.833 371.167,172.667 382,183.5C 382.667,184.5 382.667,185.5 382,186.5C 378.833,189.667 375.667,192.833 372.5,196C 371.833,196.667 371.167,196.667 370.5,196C 359.333,184.833 348.167,173.667 337,162.5C 336.333,161.833 336.333,161.167 337,160.5C 340.371,157.297 343.538,153.964 346.5,150.5 Z"/></g>
<g><path style="opacity:1" fill="#124774" d="M 487.5,149.5 C 499.084,160.583 510.584,171.916 522,183.5C 522.667,184.5 522.667,185.5 522,186.5C 518.833,189.667 515.667,192.833 512.5,196C 511.833,196.667 511.167,196.667 510.5,196C 499.333,184.833 488.167,173.667 477,162.5C 476.333,161.833 476.333,161.167 477,160.5C 480.704,156.964 484.204,153.298 487.5,149.5 Z"/></g>
<g><path style="opacity:0.952" fill="#1f1e1c" d="M 351.5,236.5 C 352.228,238.735 353.561,240.568 355.5,242C 359.043,245.049 362.709,247.882 366.5,250.5C 383.628,265.124 400.628,279.958 417.5,295C 421.958,294.677 426.458,294.177 431,293.5C 435.85,294.114 440.684,294.781 445.5,295.5C 446.167,295.5 446.5,295.833 446.5,296.5C 447.167,296.5 447.5,296.833 447.5,297.5C 456.527,303.194 463.861,310.527 469.5,319.5C 471.297,326.686 471.963,334.02 471.5,341.5C 469.952,341.821 469.285,342.821 469.5,344.5C 470.5,344.5 471.5,344.5 472.5,344.5C 480.167,351.331 488,357.998 496,364.5C 496.667,365.5 496.667,366.5 496,367.5C 494.978,368.354 494.145,369.354 493.5,370.5C 507.126,384.381 509.626,400.047 501,417.5C 498,421.833 494.333,425.5 490,428.5C 493.262,449.12 485.095,463.62 465.5,472C 462.854,472.497 460.187,472.664 457.5,472.5C 448.364,491.58 433.03,501.58 411.5,502.5C 397.73,502.278 385.73,497.611 375.5,488.5C 373.016,490.483 370.683,492.65 368.5,495C 367.5,495.667 366.5,495.667 365.5,495C 358.873,486.704 351.873,478.704 344.5,471C 338.843,470.501 333.176,470.334 327.5,470.5C 311.862,464.862 301.195,454.195 295.5,438.5C 295.131,435.681 294.798,432.848 294.5,430C 295.177,425.458 295.677,420.958 296,416.5C 278.384,396.239 260.551,376.239 242.5,356.5C 242.649,355.448 242.483,354.448 242,353.5C 238.131,349.966 234.631,346.133 231.5,342C 230.906,341.536 230.239,341.369 229.5,341.5C 208.625,317.604 187.625,293.771 166.5,270C 201.333,235.167 236.167,200.333 271,165.5C 298.002,189.003 324.835,212.67 351.5,236.5 Z"/></g>
<g><path style="opacity:1" fill="#0d3556" d="M 463.5,173.5 C 475.893,184.389 487.893,195.889 499.5,208C 496.327,212.851 492.327,216.518 487.5,219C 476.333,207.833 465.167,196.667 454,185.5C 453.333,184.833 453.333,184.167 454,183.5C 457.371,180.297 460.538,176.964 463.5,173.5 Z"/></g>
<g><path style="opacity:1" fill="#f89b1c" d="M 412.5,307.5 C 378.167,342.5 343.5,377.167 308.5,411.5C 267.866,366.695 227.366,321.695 187,276.5C 185.081,274.309 183.747,271.976 183,269.5C 212.347,239.986 241.847,210.653 271.5,181.5C 318.761,223.283 365.761,265.283 412.5,307.5 Z"/></g>
<g><path style="opacity:1" fill="#272013" d="M 459.5,155.5 C 439.753,176.749 419.42,197.582 398.5,218C 397.906,218.464 397.239,218.631 396.5,218.5C 417.167,197.167 438.167,176.167 459.5,155.5 Z"/></g>
<g><path style="opacity:1" fill="#0d3556" d="M 534.5,196.5 C 546.084,207.583 557.584,218.916 569,230.5C 569.667,231.167 569.667,231.833 569,232.5C 565.833,235.667 562.667,238.833 559.5,242C 558.5,242.667 557.5,242.667 556.5,242C 545.667,231.167 534.833,220.333 524,209.5C 523.333,208.833 523.333,208.167 524,207.5C 527.704,203.964 531.204,200.298 534.5,196.5 Z"/></g>
<g><path style="opacity:1" fill="#124774" d="M 440.5,196.5 C 452.747,207.244 464.58,218.577 476,230.5C 476.667,231.167 476.667,231.833 476,232.5C 472.833,235.667 469.667,238.833 466.5,242C 465.5,242.667 464.5,242.667 463.5,242C 452.667,231.167 441.833,220.333 431,209.5C 430.333,208.5 430.333,207.5 431,206.5C 434.371,203.297 437.538,199.964 440.5,196.5 Z"/></g>
<g><path style="opacity:1" fill="#24201b" d="M 274.5,209.5 C 261.5,223.167 248.167,236.5 234.5,249.5C 232.873,247.37 231.04,245.37 229,243.5C 228.333,242.5 228.333,241.5 229,240.5C 241.167,228.333 253.333,216.167 265.5,204C 266.5,203.333 267.5,203.333 268.5,204C 270.37,206.04 272.37,207.873 274.5,209.5 Z"/></g>
<g><path style="opacity:1" fill="#da891c" d="M 274.5,209.5 C 275.525,209.897 275.692,210.563 275,211.5C 262.167,224.333 249.333,237.167 236.5,250C 235.563,250.692 234.897,250.525 234.5,249.5C 248.167,236.5 261.5,223.167 274.5,209.5 Z"/></g>
<g><path style="opacity:1" fill="#091a2a" d="M 512.5,220.5 C 524.08,230.577 535.247,241.243 546,252.5C 546.74,253.749 546.573,254.749 545.5,255.5C 545.631,254.761 545.464,254.094 545,253.5C 533.965,242.632 523.131,231.632 512.5,220.5 Z"/></g>
<g><path style="opacity:1" fill="#0d3455" d="M 416.5,220.5 C 417.552,220.351 418.552,220.517 419.5,221C 430.333,231.833 441.167,242.667 452,253.5C 452.667,254.5 452.667,255.5 452,256.5C 448.833,259.667 445.667,262.833 442.5,266C 441.833,266.667 441.167,266.667 440.5,266C 429.333,254.833 418.167,243.667 407,232.5C 406.333,231.833 406.333,231.167 407,230.5C 410.371,227.297 413.538,223.964 416.5,220.5 Z"/></g>
<g><path style="opacity:1" fill="#124877" d="M 512.5,220.5 C 523.131,231.632 533.965,242.632 545,253.5C 545.464,254.094 545.631,254.761 545.5,255.5C 542.704,258.797 539.704,261.964 536.5,265C 535.5,265.667 534.5,265.667 533.5,265C 522.667,254.167 511.833,243.333 501,232.5C 500.333,231.833 500.333,231.167 501,230.5C 504.429,226.561 508.263,223.228 512.5,220.5 Z"/></g>
<g><path style="opacity:1" fill="#0d3556" d="M 487.5,243.5 C 499.414,253.91 510.914,264.91 522,276.5C 522.667,277.5 522.667,278.5 522,279.5C 518.833,282.667 515.667,285.833 512.5,289C 511.833,289.667 511.167,289.667 510.5,289C 498.986,277.653 487.652,266.153 476.5,254.5C 480.521,251.146 484.188,247.479 487.5,243.5 Z"/></g>
<g><path style="opacity:1" fill="#26211b" d="M 217.5,251.5 C 221.131,252.608 224.131,254.774 226.5,258C 224,260.5 221.5,263 219,265.5C 216.447,263.284 214.28,260.784 212.5,258C 213.985,255.683 215.652,253.516 217.5,251.5 Z"/></g>
<g><path style="opacity:0.978" fill="#000001" d="M 229.5,341.5 C 230.239,341.369 230.906,341.536 231.5,342C 234.631,346.133 238.131,349.966 242,353.5C 242.483,354.448 242.649,355.448 242.5,356.5C 237.369,361.13 232.369,365.963 227.5,371C 250.035,393.702 272.701,416.202 295.5,438.5C 301.195,454.195 311.862,464.862 327.5,470.5C 328.468,473.445 328.634,476.445 328,479.5C 295.5,512 263,544.5 230.5,577C 228.305,578.373 225.971,578.706 223.5,578C 151.027,506.527 78.8607,434.694 7,362.5C 6.33333,359.833 6.33333,357.167 7,354.5C 39.5,322 72,289.5 104.5,257C 106.218,256.654 107.885,256.154 109.5,255.5C 111.167,256.333 112.833,257.167 114.5,258C 147.667,291.167 180.833,324.333 214,357.5C 219.37,352.298 224.536,346.965 229.5,341.5 Z"/></g>
<g><path style="opacity:1" fill="#124774" d="M 463.5,266.5 C 475.705,277.2 487.538,288.533 499,300.5C 499.667,301.167 499.667,301.833 499,302.5C 495.833,305.667 492.667,308.833 489.5,312C 488.5,312.667 487.5,312.667 486.5,312C 475.667,301.167 464.833,290.333 454,279.5C 453.333,278.833 453.333,278.167 454,277.5C 457.773,274.236 460.94,270.57 463.5,266.5 Z"/></g>
<g><path style="opacity:1" fill="#124775" d="M 108.5,277.5 C 120.414,287.91 131.914,298.91 143,310.5C 143.667,311.5 143.667,312.5 143,313.5C 139.833,316.667 136.667,319.833 133.5,323C 132.833,323.667 132.167,323.667 131.5,323C 119.986,311.653 108.652,300.153 97.5,288.5C 101.521,285.146 105.188,281.479 108.5,277.5 Z"/></g>
<g><path style="opacity:1" fill="#0d3556" d="M 84.5,300.5 C 96.747,311.244 108.58,322.577 120,334.5C 120.667,335.167 120.667,335.833 120,336.5C 116.833,339.667 113.667,342.833 110.5,346C 109.5,346.667 108.5,346.667 107.5,346C 96.6667,335.167 85.8333,324.333 75,313.5C 74.2506,312.365 74.4173,311.365 75.5,310.5C 79.2567,307.749 82.2567,304.415 84.5,300.5 Z"/></g>
<g><path style="opacity:1" fill="#f8ad48" d="M 443.5,338.5 C 440.5,340.833 437.833,343.5 435.5,346.5C 434.102,344.891 432.435,344.058 430.5,344C 428.316,346.016 426.316,348.183 424.5,350.5C 425.524,351.852 426.524,353.185 427.5,354.5C 424.5,356.833 421.833,359.5 419.5,362.5C 418.102,360.891 416.435,360.058 414.5,360C 382.986,391.68 351.32,423.18 319.5,454.5C 306.257,443.862 303.257,430.862 310.5,415.5C 309.82,414.14 309.153,412.807 308.5,411.5C 343.5,377.167 378.167,342.5 412.5,307.5C 413.807,308.153 415.14,308.82 416.5,309.5C 431.862,302.257 444.862,305.257 455.5,318.5C 450.848,323.652 446.015,328.652 441,333.5C 441.058,335.435 441.891,337.102 443.5,338.5 Z"/></g>
<g><path style="opacity:1" fill="#124774" d="M 61.5,324.5 C 62.552,324.351 63.552,324.517 64.5,325C 75.3333,335.833 86.1667,346.667 97,357.5C 94.2176,362.468 90.3843,366.802 85.5,370.5C 74.5142,359.014 63.3476,347.681 52,336.5C 51.3333,335.833 51.3333,335.167 52,334.5C 55.3709,331.297 58.5375,327.964 61.5,324.5 Z"/></g>
<g><path style="opacity:1" fill="#0d3556" d="M 149.5,353.5 C 146.105,349.102 142.105,345.436 137.5,342.5C 142.964,336.535 148.63,330.702 154.5,325C 155.5,324.333 156.5,324.333 157.5,325C 168.876,336.041 179.876,347.375 190.5,359C 186.673,362.66 183.007,366.494 179.5,370.5C 172.984,364.149 166.317,357.983 159.5,352C 155.928,351.153 152.594,351.653 149.5,353.5 Z"/></g>
<g><path style="opacity:1" fill="#939392" d="M 457.5,331.5 C 458.209,330.596 459.209,330.263 460.5,330.5C 460.802,333.059 460.468,335.393 459.5,337.5C 459.975,334.918 459.308,332.918 457.5,331.5 Z"/></g>
<g><path style="opacity:1" fill="#fcfcfc" d="M 457.5,331.5 C 459.308,332.918 459.975,334.918 459.5,337.5C 459.5,338.5 459.5,339.5 459.5,340.5C 457.688,342.713 457.355,345.047 458.5,347.5C 464.177,353.176 470.177,358.509 476.5,363.5C 472.5,364.167 468.5,364.833 464.5,365.5C 453.166,368.167 445.166,374.834 440.5,385.5C 439.076,387.515 438.41,389.848 438.5,392.5C 438.666,397.844 438.499,403.177 438,408.5C 414.833,431.667 391.667,454.833 368.5,478C 367.668,478.688 367.002,478.521 366.5,477.5C 360.483,470.76 354.483,464.094 348.5,457.5C 346.047,456.355 343.713,456.688 341.5,458.5C 340.5,458.5 339.5,458.5 338.5,458.5C 335.918,458.975 333.918,458.308 332.5,456.5C 363.083,427.419 393.249,397.752 423,367.5C 423.692,366.563 423.525,365.897 422.5,365.5C 421.167,364.833 420.167,363.833 419.5,362.5C 421.833,359.5 424.5,356.833 427.5,354.5C 428.5,354.833 429.167,355.5 429.5,356.5C 429.843,358.225 430.843,358.725 432.5,358C 435.219,355.618 437.553,352.951 439.5,350C 439.164,348.97 438.497,348.47 437.5,348.5C 436.5,348.167 435.833,347.5 435.5,346.5C 437.833,343.5 440.5,340.833 443.5,338.5C 444.5,339.167 445.5,339.833 446.5,340.5C 447.251,341.573 448.251,341.74 449.5,341C 452.777,338.234 455.443,335.067 457.5,331.5 Z"/></g>
<g><path style="opacity:1" fill="#afafae" d="M 457.5,331.5 C 455.443,335.067 452.777,338.234 449.5,341C 448.251,341.74 447.251,341.573 446.5,340.5C 450.438,337.902 454.105,334.902 457.5,331.5 Z"/></g>
<g><path style="opacity:1" fill="#124876" d="M 137.5,342.5 C 142.105,345.436 146.105,349.102 149.5,353.5C 148.508,356.779 148.341,360.112 149,363.5C 155.167,369.667 161.333,375.833 167.5,382C 163.984,385.349 160.651,388.849 157.5,392.5C 156.5,393.833 155.5,393.833 154.5,392.5C 143.659,381.159 132.659,369.992 121.5,359C 126.325,353.009 131.658,347.509 137.5,342.5 Z"/></g>
<g><path style="opacity:0.627" fill="#aeaeae" d="M 471.5,341.5 C 472.11,342.391 472.443,343.391 472.5,344.5C 471.5,344.5 470.5,344.5 469.5,344.5C 469.285,342.821 469.952,341.821 471.5,341.5 Z"/></g>
<g><path style="opacity:1" fill="#22211d" d="M 435.5,346.5 C 435.833,347.5 436.5,348.167 437.5,348.5C 437.611,349.117 437.944,349.617 438.5,350C 436,352.5 433.5,355 431,357.5C 430.617,356.944 430.117,356.611 429.5,356.5C 429.167,355.5 428.5,354.833 427.5,354.5C 426.524,353.185 425.524,351.852 424.5,350.5C 426.316,348.183 428.316,346.016 430.5,344C 432.435,344.058 434.102,344.891 435.5,346.5 Z"/></g>
<g><path style="opacity:1" fill="#727271" d="M 459.5,340.5 C 459.326,342.861 458.993,345.194 458.5,347.5C 457.355,345.047 457.688,342.713 459.5,340.5 Z"/></g>
<g><path style="opacity:1" fill="#0d3556" d="M 38.5,347.5 C 50.4135,357.91 61.9135,368.91 73,380.5C 73.6667,381.5 73.6667,382.5 73,383.5C 69.8333,386.667 66.6667,389.833 63.5,393C 62.8333,393.667 62.1667,393.667 61.5,393C 50.1449,381.645 38.8116,370.312 27.5,359C 31.3482,355.319 35.0148,351.486 38.5,347.5 Z"/></g>
<g><path style="opacity:1" fill="#bebebd" d="M 437.5,348.5 C 438.497,348.47 439.164,348.97 439.5,350C 437.553,352.951 435.219,355.618 432.5,358C 430.843,358.725 429.843,358.225 429.5,356.5C 430.117,356.611 430.617,356.944 431,357.5C 433.5,355 436,352.5 438.5,350C 437.944,349.617 437.611,349.117 437.5,348.5 Z"/></g>
<g><path style="opacity:1" fill="#848483" d="M 476.5,363.5 C 477.043,363.56 477.376,363.893 477.5,364.5C 473.217,365.492 468.884,365.826 464.5,365.5C 468.5,364.833 472.5,364.167 476.5,363.5 Z"/></g>
<g><path style="opacity:1" fill="#0d3657" d="M 107.5,371.5 C 108.552,371.351 109.552,371.517 110.5,372C 121.333,382.833 132.167,393.667 143,404.5C 143.667,405.167 143.667,405.833 143,406.5C 139.645,409.855 136.312,413.188 133,416.5C 121.375,405.876 110.041,394.876 99,383.5C 98.3333,382.5 98.3333,381.5 99,380.5C 102.038,377.631 104.871,374.631 107.5,371.5 Z"/></g>
<g><path style="opacity:1" fill="#f8c264" d="M 203.5,371.5 C 207.167,374.5 210.5,377.833 213.5,381.5C 213.631,382.239 213.464,382.906 213,383.5C 191.965,404.368 171.132,425.368 150.5,446.5C 150.167,446.5 149.833,446.5 149.5,446.5C 146.167,442.833 142.833,439.167 139.5,435.5C 140.11,434.609 140.443,433.609 140.5,432.5C 141.239,432.631 141.906,432.464 142.5,432C 162.701,411.632 183.035,391.465 203.5,371.5 Z"/></g>
<g><path style="opacity:1" fill="#fbfbfb" d="M 419.5,489.5 C 412.798,489.664 406.131,489.331 399.5,488.5C 393.368,487.183 388.201,484.183 384,479.5C 383.333,478.833 383.333,478.167 384,477.5C 406,455.5 428,433.5 450,411.5C 448.71,405.016 448.377,398.35 449,391.5C 457.071,374.889 469.238,371.055 485.5,380C 496.714,391.027 497.38,402.694 487.5,415C 483.264,417.869 478.764,420.036 474,421.5C 476.423,426.582 477.923,432.082 478.5,438C 476.29,454.797 466.623,462.63 449.5,461.5C 444.991,476.674 434.991,486.008 419.5,489.5 Z"/></g>
<g><path style="opacity:1" fill="#5c5c5b" d="M 440.5,385.5 C 440.59,388.152 439.924,390.485 438.5,392.5C 438.41,389.848 439.076,387.515 440.5,385.5 Z"/></g>
<g><path style="opacity:1" fill="#124774" d="M 84.5,394.5 C 85.552,394.351 86.552,394.517 87.5,395C 98.3333,405.833 109.167,416.667 120,427.5C 120.749,428.635 120.583,429.635 119.5,430.5C 115.827,433.673 112.327,437.006 109,440.5C 97.6884,429.188 86.3551,417.855 75,406.5C 74.3333,405.833 74.3333,405.167 75,404.5C 78.3709,401.297 81.5375,397.964 84.5,394.5 Z"/></g>
<g><path style="opacity:1" fill="#0d3556" d="M 224.5,394.5 C 225.552,394.351 226.552,394.517 227.5,395C 238.333,405.833 249.167,416.667 260,427.5C 260.749,428.635 260.583,429.635 259.5,430.5C 255.833,433.5 252.5,436.833 249.5,440.5C 237.847,429.348 226.347,418.014 215,406.5C 214.333,405.833 214.333,405.167 215,404.5C 218.371,401.297 221.538,397.964 224.5,394.5 Z"/></g>
<g><path style="opacity:1" fill="#c1974d" d="M 203.5,371.5 C 183.035,391.465 162.701,411.632 142.5,432C 141.906,432.464 141.239,432.631 140.5,432.5C 160.632,411.868 180.965,391.368 201.5,371C 202.437,370.308 203.103,370.475 203.5,371.5 Z"/></g>
<g><path style="opacity:1" fill="#124876" d="M 201.5,417.5 C 213.914,428.41 225.914,439.91 237.5,452C 233.645,455.855 229.812,459.688 226,463.5C 214.5,452 203,440.5 191.5,429C 194.656,425.011 197.989,421.177 201.5,417.5 Z"/></g>
<g><path style="opacity:1" fill="#231c10" d="M 213.5,381.5 C 214.573,382.251 214.74,383.251 214,384.5C 193.249,405.753 172.082,426.42 150.5,446.5C 171.132,425.368 191.965,404.368 213,383.5C 213.464,382.906 213.631,382.239 213.5,381.5 Z"/></g>
<g><path style="opacity:1" fill="#b6b6b5" d="M 422.5,365.5 C 423.525,365.897 423.692,366.563 423,367.5C 393.249,397.752 363.083,427.419 332.5,456.5C 362.5,426.167 392.5,395.833 422.5,365.5 Z"/></g>
<g><path style="opacity:1" fill="#f4af32" d="M 139.5,435.5 C 142.833,439.167 146.167,442.833 149.5,446.5C 144.167,452.167 138.833,457.833 133.5,463.5C 129.263,460.772 125.429,457.439 122,453.5C 121.26,452.251 121.427,451.251 122.5,450.5C 128.444,445.894 134.11,440.894 139.5,435.5 Z"/></g>
<g><path style="opacity:1" fill="#0d3657" d="M 177.5,441.5 C 178.552,441.351 179.552,441.517 180.5,442C 191.333,452.833 202.167,463.667 213,474.5C 213.749,475.635 213.583,476.635 212.5,477.5C 209.161,480.34 205.994,483.34 203,486.5C 191.375,475.876 180.041,464.876 169,453.5C 168.333,452.5 168.333,451.5 169,450.5C 172.038,447.631 174.871,444.631 177.5,441.5 Z"/></g>
<g><path style="opacity:1" fill="#124774" d="M 271.5,440.5 C 283.747,451.244 295.58,462.577 307,474.5C 307.667,475.167 307.667,475.833 307,476.5C 303.833,479.667 300.667,482.833 297.5,486C 296.5,486.667 295.5,486.667 294.5,486C 283.667,475.167 272.833,464.333 262,453.5C 261.333,452.5 261.333,451.5 262,450.5C 265.371,447.297 268.538,443.964 271.5,440.5 Z"/></g>
<g><path style="opacity:1" fill="#bf8928" d="M 140.5,432.5 C 140.443,433.609 140.11,434.609 139.5,435.5C 134.11,440.894 128.444,445.894 122.5,450.5C 128.167,444.167 134.167,438.167 140.5,432.5 Z"/></g>
<g><path style="opacity:1" fill="#231908" d="M 149.5,446.5 C 149.833,446.5 150.167,446.5 150.5,446.5C 145.833,453.167 140.167,458.833 133.5,463.5C 138.833,457.833 144.167,452.167 149.5,446.5 Z"/></g>
<g><path style="opacity:1" fill="#646464" d="M 348.5,457.5 C 346.194,457.993 343.861,458.326 341.5,458.5C 343.713,456.688 346.047,456.355 348.5,457.5 Z"/></g>
<g><path style="opacity:1" fill="#929291" d="M 332.5,456.5 C 333.918,458.308 335.918,458.975 338.5,458.5C 336.393,459.468 334.059,459.802 331.5,459.5C 331.263,458.209 331.596,457.209 332.5,456.5 Z"/></g>
<g><path style="opacity:1" fill="#124876" d="M 180.5,509.5 C 168.586,499.09 157.086,488.09 146,476.5C 145.536,475.906 145.369,475.239 145.5,474.5C 148.296,471.203 151.296,468.036 154.5,465C 155.5,464.333 156.5,464.333 157.5,465C 168.333,475.833 179.167,486.667 190,497.5C 190.749,498.635 190.583,499.635 189.5,500.5C 186.146,503.188 183.146,506.188 180.5,509.5 Z"/></g>
<g><path style="opacity:1" fill="#0d3556" d="M 248.5,464.5 C 260.414,474.91 271.914,485.91 283,497.5C 283.667,498.5 283.667,499.5 283,500.5C 279.833,503.667 276.667,506.833 273.5,510C 272.833,510.667 272.167,510.667 271.5,510C 260.667,499.167 249.833,488.333 239,477.5C 238.333,476.5 238.333,475.5 239,474.5C 242.371,471.297 245.538,467.964 248.5,464.5 Z"/></g>
<g><path style="opacity:1" fill="#08263e" d="M 145.5,474.5 C 145.369,475.239 145.536,475.906 146,476.5C 157.086,488.09 168.586,499.09 180.5,509.5C 179.749,510.573 178.749,510.74 177.5,510C 166.667,499.167 155.833,488.333 145,477.5C 144.26,476.251 144.427,475.251 145.5,474.5 Z"/></g>
<g><path style="opacity:1" fill="#124774" d="M 220.5,515.5 C 215.408,512.744 211.742,508.744 209.5,503.5C 214.297,498.202 219.297,493.035 224.5,488C 225.5,487.333 226.5,487.333 227.5,488C 238.333,498.833 249.167,509.667 260,520.5C 260.667,521.5 260.667,522.5 260,523.5C 256.651,527.016 253.151,530.349 249.5,533.5C 243.681,528.182 238.015,522.682 232.5,517C 228.734,514.42 224.734,513.92 220.5,515.5 Z"/></g>
<g><path style="opacity:1" fill="#a4a4a4" d="M 399.5,488.5 C 406.131,489.331 412.798,489.664 419.5,489.5C 416.854,490.164 414.021,490.498 411,490.5C 406.867,490.714 403.034,490.048 399.5,488.5 Z"/></g>
<g><path style="opacity:1" fill="#0d3556" d="M 209.5,503.5 C 211.742,508.744 215.408,512.744 220.5,515.5C 218.113,519.387 217.946,523.387 220,527.5C 226.015,533.348 231.848,539.348 237.5,545.5C 234.136,549.699 230.302,553.365 226,556.5C 214.375,545.876 203.041,534.876 192,523.5C 191.333,522.833 191.333,522.167 192,521.5C 198.064,515.605 203.897,509.605 209.5,503.5 Z"/></g>
</svg>
